<?xml version="1.0" standalone="no"?>
<!DOCTYPE svg PUBLIC "-//W3C//DTD SVG 20010904//EN"
 "http://www.w3.org/TR/2001/REC-SVG-20010904/DTD/svg10.dtd">
<svg version="1.0" xmlns="http://www.w3.org/2000/svg"
 width="600.000000pt" height="600.000000pt" viewBox="0 0 600.000000 600.000000"
 preserveAspectRatio="xMidYMid meet">

<g transform="translate(0.000000,600.000000) scale(0.100000,-0.100000)"
fill="#000000" stroke="none">
<path d="M3175 5490 c-41 -12 -251 -37 -410 -50 -261 -21 -462 -66 -680 -151
-196 -76 -340 -183 -431 -321 -73 -110 -100 -186 -119 -341 -6 -43 -15 -57
-106 -153 -127 -135 -218 -257 -271 -363 -42 -81 -43 -87 -46 -195 -2 -65 3
-161 12 -234 18 -134 102 -483 135 -558 13 -29 18 -51 12 -58 -21 -26 -51
-152 -51 -215 0 -80 30 -212 67 -289 35 -75 138 -177 224 -222 60 -31 75 -46
139 -135 40 -55 86 -117 102 -138 l30 -38 -87 -297 c-48 -163 -90 -311 -92
-329 -5 -29 4 -41 109 -148 128 -133 221 -211 358 -301 332 -217 720 -329
1026 -295 106 11 215 43 236 68 7 9 33 138 58 287 l45 271 90 16 c184 35 242
73 403 267 117 141 205 273 263 397 74 157 112 310 144 575 9 74 18 149 21
166 4 29 7 31 77 42 149 25 252 100 281 204 20 71 45 245 48 341 4 116 -1 119
-255 133 -84 5 -120 10 -124 20 -2 7 9 32 25 56 43 63 78 135 96 203 17 59 18
60 54 60 46 0 55 18 77 139 43 251 2 482 -122 690 -65 109 -175 248 -282 359
l-104 107 43 90 c48 102 52 136 21 161 -19 16 -27 16 -79 4 -253 -59 -405 -74
-577 -56 -116 12 -285 40 -285 47 0 3 14 30 30 61 32 59 38 101 18 121 -14 14
-78 14 -123 2z m-391 -1185 c-56 -127 -233 -394 -346 -523 -60 -67 -71 -99
-42 -122 36 -31 508 64 702 141 93 37 205 93 262 132 112 76 294 252 384 372
9 11 16 17 16 13 0 -19 -55 -151 -95 -225 -49 -91 -52 -104 -29 -127 29 -30
75 -19 154 35 93 64 168 135 227 217 l45 64 51 -79 c102 -159 135 -295 163
-668 l6 -90 -178 0 c-173 0 -181 -1 -254 -29 -48 -18 -89 -28 -115 -26 -46 3
-163 3 -215 0 -19 -1 -74 12 -121 29 -47 17 -117 35 -155 41 -101 14 -458 12
-694 -5 -363 -26 -402 -36 -408 -111 -3 -39 78 -387 100 -427 23 -45 81 -106
132 -141 110 -77 291 -116 531 -116 223 0 382 34 473 100 71 51 118 185 152
432 9 66 16 88 28 92 46 12 70 14 107 8 l40 -7 5 -83 c3 -45 2 -82 -2 -82 -5
0 -8 4 -8 10 0 16 -49 23 -65 10 -33 -27 -7 -102 85 -250 90 -144 139 -234
145 -265 8 -41 -23 -88 -82 -126 -53 -33 -65 -53 -50 -86 21 -46 68 -36 154
33 79 64 105 171 63 263 -17 36 -18 42 -4 37 9 -3 81 -9 160 -13 108 -4 144
-9 144 -19 0 -38 -42 -332 -60 -419 -48 -234 -133 -402 -326 -641 -107 -132
-179 -197 -245 -222 -125 -47 -401 -57 -604 -22 -134 23 -164 35 -312 123 -59
35 -146 85 -193 112 -117 65 -195 122 -273 198 -77 74 -110 138 -186 352 -26
72 -51 138 -57 149 -10 17 -26 19 -140 21 -111 1 -139 5 -202 28 -192 69 -274
162 -317 361 -15 65 -16 90 -7 144 17 102 47 152 112 185 103 53 166 23 327
-150 190 -207 197 -213 231 -213 48 0 57 26 43 129 -20 159 -21 206 -11 346
26 367 133 739 279 972 25 42 51 61 33 26 -5 -10 -33 -100 -61 -200 -55 -192
-56 -214 -11 -228 34 -11 58 13 136 133 100 153 192 267 302 375 49 48 92 87
95 87 3 0 -5 -25 -19 -55z m505 -960 c46 -9 101 -23 122 -32 44 -17 44 4 -3
-218 -38 -179 -63 -237 -115 -263 -136 -70 -396 -89 -635 -47 -117 20 -190 49
-251 99 -42 34 -56 54 -73 102 -28 79 -89 322 -82 329 9 9 163 26 368 40 241
17 553 12 669 -10z m996 -10 c88 -8 190 -15 226 -15 36 0 87 -3 113 -6 44 -6
47 -8 41 -33 -3 -14 -14 -86 -25 -158 -11 -73 -26 -148 -34 -167 -33 -79 -165
-118 -398 -117 -133 0 -310 15 -329 27 -25 15 -73 290 -67 386 l3 52 45 13
c115 35 206 38 425 18z m-2312 -1235 c57 -167 104 -249 190 -333 117 -115 239
-192 584 -374 144 -75 240 -99 446 -109 113 -6 127 -9 127 -25 0 -26 -70 -450
-75 -460 -3 -4 -40 -15 -82 -25 -114 -25 -342 -15 -483 21 -326 85 -621 256
-867 503 -57 58 -102 110 -100 116 3 6 53 181 113 389 60 207 111 377 114 377
3 0 17 -36 33 -80z"/>
<path d="M2868 3697 c-37 -13 -76 -32 -88 -42 -26 -23 -26 -57 0 -80 19 -18
22 -17 88 9 70 28 126 31 218 11 38 -8 66 16 62 53 -8 66 -158 92 -280 49z"/>
<path d="M4010 3704 c-103 -34 -128 -54 -115 -94 11 -36 41 -43 96 -25 48 16
119 16 180 0 49 -13 81 53 42 87 -37 32 -149 49 -203 32z"/>
<path d="M1496 3030 c-65 -20 -105 -90 -106 -185 0 -114 68 -196 178 -214 45
-7 60 -16 116 -69 35 -33 75 -64 90 -68 46 -11 92 4 125 42 48 54 41 108 -26
192 -91 115 -121 133 -156 94 -25 -28 -21 -45 23 -98 22 -27 40 -54 40 -61 0
-28 -24 -22 -64 15 -34 31 -57 43 -102 52 -33 6 -69 18 -81 26 -32 20 -46 82
-31 130 18 56 57 59 103 10 41 -44 80 -48 97 -12 15 34 -15 83 -72 118 -53 31
-94 40 -134 28z"/>
<path d="M3571 2207 c-58 -28 -76 -31 -175 -35 -82 -3 -128 0 -174 12 -84 21
-99 20 -117 -8 -35 -53 14 -86 154 -106 203 -30 429 33 419 116 -2 15 -12 33
-23 40 -17 11 -29 8 -84 -19z"/>
<path d="M2942 3284 c-37 -26 -62 -87 -62 -153 0 -69 10 -101 41 -130 75 -70
166 31 157 175 -4 60 -7 70 -36 95 -36 33 -67 36 -100 13z"/>
<path d="M3995 3267 c-69 -69 -66 -239 4 -277 95 -51 190 118 137 244 -29 71
-89 85 -141 33z"/>
<path d="M4280 3188 c0 -40 -3 -124 -7 -185 l-6 -113 51 0 c62 0 60 -7 64 210
l3 155 -52 3 -53 3 0 -73z"/>
</g>
</svg>
