<?xml version="1.0" encoding="UTF-8"?>
<!DOCTYPE svg PUBLIC "-//W3C//DTD SVG 1.1//EN" "http://www.w3.org/Graphics/SVG/1.1/DTD/svg11.dtd">
<svg xmlns="http://www.w3.org/2000/svg" version="1.1" width="600px" height="600px" style="shape-rendering:geometricPrecision; text-rendering:geometricPrecision; image-rendering:optimizeQuality; fill-rule:evenodd; clip-rule:evenodd" xmlns:xlink="http://www.w3.org/1999/xlink">
<g><path style="opacity:0.903" fill="#fdfdfd" d="M 324.5,33.5 C 338.672,35.1587 345.338,42.992 344.5,57C 354.431,58.7094 364.431,59.3761 374.5,59C 387.898,57.1558 401.232,54.9891 414.5,52.5C 430.148,54.1013 436.981,62.768 435,78.5C 433.5,82.1667 432,85.8333 430.5,89.5C 446.186,106.02 459.353,124.354 470,144.5C 481.657,172.076 482.657,200.076 473,228.5C 470.613,232.553 467.28,235.553 463,237.5C 460.527,243.779 457.527,249.779 454,255.5C 453.723,294.438 450.389,333.105 444,371.5C 437.926,401.645 424.926,428.312 405,451.5C 395.88,463.96 384.38,473.46 370.5,480C 365.579,481.308 360.745,482.808 356,484.5C 353.45,498.464 351.117,512.464 349,526.5C 346.623,535.212 341.123,541.045 332.5,544C 297.357,552.54 263.357,549.207 230.5,534C 198.25,520.137 171.083,499.637 149,472.5C 145.644,466.243 144.644,459.576 146,452.5C 150.468,436.097 155.135,419.764 160,403.5C 160.667,401.833 160.667,400.167 160,398.5C 154.472,387.639 146.306,379.472 135.5,374C 116.21,359.019 106.544,339.185 106.5,314.5C 106.883,306.494 108.217,298.661 110.5,291C 102.002,265.34 97.0021,239.006 95.5,212C 94.8468,199.629 97.6801,188.129 104,177.5C 113.429,161.729 124.762,147.396 138,134.5C 143.187,99.3133 162.021,74.48 194.5,60C 213.151,52.0083 232.484,46.3416 252.5,43C 276.827,41.2052 300.827,38.0385 324.5,33.5 Z"/></g>
<g><path style="opacity:1" fill="#070404" d="M 320.5,49.5 C 325.445,48.3106 328.778,49.9773 330.5,54.5C 328.742,59.6697 326.742,64.6697 324.5,69.5C 338.331,72.4755 352.331,74.1422 366.5,74.5C 383.692,73.4003 400.692,71.2336 417.5,68C 419.357,69.1824 420.357,70.849 420.5,73C 419.03,78.4419 416.864,83.6085 414,88.5C 413.009,90.4473 412.675,92.4473 413,94.5C 427.931,108.085 440.598,123.419 451,140.5C 465.513,165.837 468.513,192.503 460,220.5C 459.5,221.667 458.667,222.5 457.5,223C 455.343,223.078 453.343,223.245 451.5,223.5C 448.864,233.77 444.364,243.103 438,251.5C 439.099,294.257 435.432,336.59 427,378.5C 420.866,400.771 410.533,420.771 396,438.5C 390.5,444.667 385,450.833 379.5,457C 368.736,465.535 356.402,470.035 342.5,470.5C 339.845,489.25 336.679,507.916 333,526.5C 328.624,529.515 323.791,531.348 318.5,532C 294.543,535.776 271.21,533.443 248.5,525C 213.843,512.26 184.677,491.76 161,463.5C 160.333,460.833 160.333,458.167 161,455.5C 166.5,436.167 172,416.833 177.5,397.5C 171.26,388.032 164.76,378.698 158,369.5C 128.47,355.105 117.137,331.771 124,299.5C 124.892,296.716 126.058,294.05 127.5,291.5C 115.279,260.908 110.112,229.241 112,196.5C 116.308,186.547 121.641,177.214 128,168.5C 135.962,158.869 144.296,149.536 153,140.5C 154.152,117.695 163.652,99.1952 181.5,85C 203.845,70.882 228.178,61.882 254.5,58C 270.492,56.2601 286.492,54.5934 302.5,53C 308.716,52.2379 314.716,51.0713 320.5,49.5 Z"/></g>
<g><path style="opacity:1" fill="#fdfdfd" d="M 279.5,162.5 C 280.239,162.369 280.906,162.536 281.5,163C 269.771,186.391 255.271,207.891 238,227.5C 237.104,230.025 237.604,232.192 239.5,234C 271.891,232.145 302.558,223.812 331.5,209C 348.455,197.767 362.955,183.933 375,167.5C 372.382,178.087 368.048,188.087 362,197.5C 361.08,202.251 363.08,204.584 368,204.5C 378.798,200.082 388.131,193.415 396,184.5C 396.667,185.833 396.667,187.167 396,188.5C 392.746,191.874 391.912,195.707 393.5,200C 396.257,200.584 398.923,200.25 401.5,199C 406.975,196.025 411.308,191.858 414.5,186.5C 416.146,187.779 417.313,189.445 418,191.5C 423.369,208.381 426.369,225.714 427,243.5C 428.872,290.3 425.205,336.633 416,382.5C 405.348,409.486 389.515,432.986 368.5,453C 364.729,455.219 360.729,456.885 356.5,458C 336.165,461.297 315.832,461.297 295.5,458C 292.216,456.875 288.883,455.875 285.5,455C 267.17,444.837 249.17,434.17 231.5,423C 219.781,414.606 211.948,403.439 208,389.5C 205.667,382.5 203.333,375.5 201,368.5C 199.878,366.376 198.378,364.543 196.5,363C 178.317,365.363 161.65,361.363 146.5,351C 133.576,336.711 129.409,320.211 134,301.5C 141.279,287.521 151.445,285.021 164.5,294C 174.5,304.667 184.5,315.333 194.5,326C 200.343,329.05 203.676,327.383 204.5,321C 199.355,280.96 204.188,242.127 219,204.5C 223.239,195.016 228.239,186.016 234,177.5C 230.186,190.741 226.353,204.074 222.5,217.5C 223.175,222.353 225.842,224.187 230.5,223C 239.613,209.554 249.113,196.387 259,183.5C 266.057,176.611 272.891,169.611 279.5,162.5 Z"/></g>
<g><path style="opacity:1" fill="#0f0e0e" d="M 290.5,227.5 C 296.577,227.196 302.577,227.696 308.5,229C 313.257,230.069 315.091,232.902 314,237.5C 312.972,239.516 311.305,240.516 309,240.5C 305.661,239.095 302.161,238.428 298.5,238.5C 291.533,239.18 284.866,240.68 278.5,243C 275.793,241.136 274.959,238.636 276,235.5C 280.397,231.888 285.23,229.221 290.5,227.5 Z"/></g>
<g><path style="opacity:1" fill="#0f0e0e" d="M 401.5,228.5 C 407.7,228.016 413.7,228.849 419.5,231C 423.9,235.499 423.233,238.999 417.5,241.5C 414.17,240.049 410.67,239.383 407,239.5C 401.969,239.748 397.136,240.581 392.5,242C 388.896,240.666 387.729,238.166 389,234.5C 392.811,231.509 396.978,229.509 401.5,228.5 Z"/></g>
<g><path style="opacity:1" fill="#0a0808" d="M 295.5,269.5 C 304.121,270.125 308.121,274.792 307.5,283.5C 307.968,289.932 305.968,295.432 301.5,300C 296.225,302.706 292.059,301.539 289,296.5C 286.498,288.515 287.165,280.848 291,273.5C 292.397,271.93 293.897,270.596 295.5,269.5 Z"/></g>
<g><path style="opacity:1" fill="#0c0b0b" d="M 402.5,269.5 C 410.828,270.001 414.828,274.501 414.5,283C 414.524,288.913 412.858,294.247 409.5,299C 405.197,302.422 401.03,302.256 397,298.5C 391.115,287.216 392.948,277.549 402.5,269.5 Z"/></g>
<g><path style="opacity:1" fill="#0d0c0c" d="M 363.5,284.5 C 364.873,284.343 366.207,284.51 367.5,285C 377.771,299.957 387.271,315.457 396,331.5C 397.511,346.17 391.344,356.17 377.5,361.5C 372.922,360.132 371.422,357.132 373,352.5C 379.952,349.884 384.452,345.05 386.5,338C 386.204,336.112 385.704,334.278 385,332.5C 377.748,320.999 370.748,309.332 364,297.5C 361.142,293.119 360.975,288.786 363.5,284.5 Z"/></g>
<g><path style="opacity:1" fill="#0b0a0a" d="M 147.5,296.5 C 158.703,294.927 166.369,299.26 170.5,309.5C 169.148,313.254 166.482,314.421 162.5,313C 160.358,308.097 156.691,306.097 151.5,307C 147.469,312.827 147.802,318.494 152.5,324C 156.988,325.882 161.655,327.215 166.5,328C 169.646,330.312 172.646,332.812 175.5,335.5C 176.415,334.672 177.081,333.672 177.5,332.5C 174.406,328.748 171.739,324.748 169.5,320.5C 170.602,316.233 173.269,314.733 177.5,316C 182.937,321.713 187.77,327.88 192,334.5C 192.833,345.667 187.667,350.833 176.5,350C 171.245,346.749 166.578,342.749 162.5,338C 140.457,334.416 133.623,322.249 142,301.5C 143.73,299.598 145.563,297.931 147.5,296.5 Z"/></g>
<g><path style="opacity:1" fill="#0c0b0c" d="M 359.5,376.5 C 366.931,375.76 369.098,378.76 366,385.5C 348.373,394.655 330.206,395.822 311.5,389C 307.084,384.499 307.917,381.332 314,379.5C 327.47,383.249 340.97,383.416 354.5,380C 356.584,379.303 358.251,378.136 359.5,376.5 Z"/></g>
<g><path style="opacity:1" fill="#fdfdfd" d="M 192.5,380.5 C 197.308,391.797 202.475,403.131 208,414.5C 215.891,423.39 224.724,431.224 234.5,438C 251.686,448.429 269.353,458.095 287.5,467C 301.965,470.33 316.631,471.83 331.5,471.5C 329.619,487.591 327.119,503.591 324,519.5C 315.703,522.851 307.037,524.184 298,523.5C 280.502,523.918 263.669,520.751 247.5,514C 217.176,501.825 191.509,483.325 170.5,458.5C 178.152,432.553 185.486,406.553 192.5,380.5 Z"/></g>
</svg>
