<?xml version="1.0" standalone="no"?>
<!DOCTYPE svg PUBLIC "-//W3C//DTD SVG 20010904//EN"
 "http://www.w3.org/TR/2001/REC-SVG-20010904/DTD/svg10.dtd">
<svg version="1.0" xmlns="http://www.w3.org/2000/svg"
 width="600.000000pt" height="600.000000pt" viewBox="0 0 600.000000 600.000000"
 preserveAspectRatio="xMidYMid meet">

<g transform="translate(0.000000,600.000000) scale(0.100000,-0.100000)"
fill="#000000" stroke="none">
<path d="M3115 5479 c-55 -9 -201 -27 -324 -39 -243 -23 -339 -38 -472 -75
-383 -108 -595 -251 -710 -480 -38 -77 -68 -187 -69 -250 0 -38 -16 -63 -95
-145 -142 -149 -234 -274 -293 -398 l-37 -77 1 -145 c1 -88 8 -184 19 -245 23
-133 87 -393 118 -478 25 -69 25 -69 6 -111 -59 -134 -39 -358 45 -501 35 -58
150 -164 219 -200 51 -27 68 -45 159 -169 l101 -139 -53 -181 c-95 -325 -127
-449 -122 -468 7 -28 194 -220 286 -294 232 -186 504 -324 768 -390 125 -31
376 -44 498 -25 97 15 178 51 184 83 3 13 24 135 46 273 23 137 44 253 46 256
2 4 34 12 71 18 167 29 244 72 366 208 190 212 340 466 392 663 66 257 110
658 120 1088 4 198 7 226 24 250 32 46 78 144 95 205 16 54 19 58 41 53 38
-10 54 3 69 55 21 70 40 281 33 369 -19 235 -166 502 -421 768 l-99 103 33 72
c18 40 37 89 43 110 10 33 9 40 -10 59 l-22 21 -163 -32 c-202 -39 -317 -47
-478 -32 -124 12 -268 36 -278 46 -3 3 6 26 20 52 36 67 43 107 23 127 -20 19
-49 19 -180 -5z m-331 -1174 c-55 -127 -232 -394 -343 -519 -62 -71 -74 -103
-45 -126 36 -31 508 64 702 141 93 37 205 93 262 132 112 76 294 252 384 372
9 11 16 17 16 13 0 -19 -55 -151 -95 -225 -25 -46 -45 -89 -45 -97 0 -25 30
-46 64 -46 38 0 154 76 234 153 41 41 52 47 52 32 0 -11 -9 -35 -21 -54 -11
-18 -19 -45 -17 -60 7 -60 110 -24 187 66 l40 47 20 -47 c60 -139 90 -354 98
-695 10 -429 -51 -1039 -126 -1253 -56 -160 -144 -308 -287 -485 -153 -188
-216 -231 -378 -253 -192 -27 -519 -2 -632 48 -24 11 -92 48 -151 84 -59 35
-146 85 -193 112 -117 65 -195 122 -273 198 -77 74 -110 138 -186 352 -26 72
-51 138 -57 149 -10 17 -26 19 -140 21 -111 1 -139 5 -202 28 -192 69 -274
162 -317 361 -15 65 -16 90 -7 144 17 102 47 152 112 185 103 53 166 23 327
-150 190 -207 197 -213 231 -213 48 0 57 26 43 129 -20 159 -21 206 -11 346
26 367 133 739 279 972 25 42 51 61 33 26 -5 -10 -33 -100 -61 -200 -55 -192
-56 -214 -11 -228 34 -11 58 13 136 133 100 153 192 267 302 375 49 48 92 87
95 87 3 0 -5 -25 -19 -55z m-811 -2205 c57 -167 104 -249 190 -333 115 -113
250 -199 584 -374 144 -75 240 -99 446 -109 113 -6 127 -9 127 -25 0 -26 -70
-450 -75 -460 -3 -4 -40 -15 -82 -25 -114 -25 -342 -15 -483 21 -326 85 -624
258 -868 504 -57 57 -101 109 -99 115 3 6 53 181 113 389 60 207 111 377 114
377 3 0 17 -36 33 -80z"/>
<path d="M2868 3697 c-37 -13 -76 -32 -88 -42 -26 -23 -26 -57 0 -80 19 -18
22 -17 88 9 70 28 126 31 218 11 38 -8 66 16 62 53 -8 66 -158 92 -280 49z"/>
<path d="M4010 3704 c-103 -34 -128 -54 -115 -94 11 -36 41 -43 96 -25 48 16
119 16 180 0 49 -13 81 53 42 87 -37 32 -149 49 -203 32z"/>
<path d="M2942 3284 c-37 -26 -62 -87 -62 -153 0 -69 10 -101 41 -130 75 -70
166 31 157 175 -4 60 -7 70 -36 95 -36 33 -67 36 -100 13z"/>
<path d="M3995 3267 c-69 -69 -66 -239 4 -277 95 -51 190 118 137 244 -29 71
-89 85 -141 33z"/>
<path d="M3632 3138 c-31 -31 -9 -86 122 -303 53 -88 102 -177 108 -197 14
-48 -10 -91 -77 -136 -56 -38 -67 -57 -52 -89 21 -46 68 -36 154 33 59 48 86
110 81 183 -4 51 -14 75 -77 182 -41 68 -89 151 -109 184 -83 140 -118 175
-150 143z"/>
<path d="M1496 3030 c-65 -20 -105 -90 -106 -185 0 -114 68 -196 178 -214 45
-7 60 -16 116 -69 35 -33 75 -64 90 -68 46 -11 92 4 125 42 48 54 41 108 -26
192 -91 115 -121 133 -156 94 -25 -28 -21 -45 23 -98 22 -27 40 -54 40 -61 0
-28 -24 -22 -65 16 -28 26 -57 42 -82 46 -105 18 -136 45 -136 118 0 91 49
115 109 52 40 -43 79 -47 96 -11 15 34 -15 83 -72 118 -53 31 -94 40 -134 28z"/>
<path d="M3571 2207 c-58 -28 -76 -31 -175 -35 -82 -3 -128 0 -174 12 -84 21
-99 20 -117 -8 -19 -29 -9 -58 27 -77 31 -17 164 -38 238 -38 122 -1 277 47
301 92 14 26 7 58 -16 73 -17 11 -29 8 -84 -19z"/>
</g>
</svg>
